<?xml version="1.0" encoding="UTF-8"?>
<svg id="Layer_2" data-name="Layer 2" xmlns="http://www.w3.org/2000/svg" viewBox="0 0 58.23 81.25">
  <defs>
    <style>
      .cls-1 {
        fill: #716c6c;
      }
    </style>
  </defs>
  <g id="Layer_1-2" data-name="Layer 1">
    <path class="cls-1" d="M45.09,31.34c5.28-.91,13.15-2.94,13.15-6.96,0-5.33-13.65-7.2-18.8-7.72L30.17.61c-.22-.38-.62-.61-1.05-.61s-.84.23-1.05.61l-9.27,16.05c-5.15.52-18.8,2.39-18.8,7.72,0,4.02,7.87,6.05,13.15,6.96.59,2.89,2.46,5.33,5.05,6.68-2.59,2.75-4.39,2.46-4.41,2.46-.56-.15-1.16.11-1.41.64-.26.52-.11,1.16.36,1.51,1.91,1.44,3.77,2.38,5.55,2.82l-.53,3.03c-1.25,1.66-3.73,4.14-7.27,4.01-1.29-.68-2.84-.84-4.25-.45l-3.22-12c-.18-.65-.84-1.04-1.49-.86-.65.18-1.04.84-.86,1.49l3.38,12.58c-1.22,1.07-1.94,2.61-1.94,4.28,0,3.15,2.56,5.72,5.71,5.72,1.06,0,2.07-.3,2.95-.84.91-.06,2.75-.32,4.77-1.32l-3.28,18.74c-.06.36.04.71.27.99.23.27.57.43.93.43h31.31c.36,0,.7-.16.93-.43s.33-.64.27-.99l-3.27-18.69c1.88.91,3.6,1.19,4.57,1.27.88.55,1.89.85,2.96.85h.01v16.79c0,.67.54,1.21,1.21,1.21s1.21-.54,1.21-1.21v-17.34c1.96-.93,3.27-2.94,3.27-5.17s-1.32-4.25-3.27-5.17v-11.5c1.77-.52,3.07-2.16,3.07-4.1,0-2.36-1.92-4.28-4.28-4.28s-4.27,1.92-4.27,4.28c0,1.93,1.29,3.57,3.06,4.1v10.95h-.01c-.94,0-1.86.24-2.67.68-3.23.09-5.58-1.96-7.04-3.83l-.56-3.21c1.79-.44,3.65-1.38,5.55-2.82.46-.35.62-.98.36-1.51-.26-.52-.85-.79-1.41-.64-.02,0-1.81.31-4.42-2.48.88-.46,1.7-1.04,2.4-1.74,1.35-1.35,2.27-3.08,2.66-4.93h0ZM29.12,3.65l7.37,12.76c-.07,0-6.82-.54-14.73,0l7.37-12.76h0ZM2.43,24.38c0-1.52,5.47-4.28,17.22-5.36,6.11-.57,13.06-.55,18.93,0,11.75,1.08,17.22,3.83,17.22,5.36,0,1.03-2.89,3.08-10.55,4.46,0-.03-.02-.06-.02-.09-.29-1.62-1.75-2.82-3.37-2.82h-.05l-1.1-4c-.13-.46-.52-.81-1-.88-7.12-1.04-15.26-1.03-21.23,0-.46.08-.84.42-.96.88l-1.1,4h-.05c-.91,0-1.77.36-2.43,1-.52.52-.87,1.26-.96,1.91-7.65-1.39-10.55-3.44-10.55-4.46h0ZM21.16,38.3c.32-.4.64-.86,1.06-1.48.49-.74,1.24-1.24,2-1.34,1.21-.14,2.4.51,3.52,1.96-1.57,3.55-4.09,6.06-7.95,5.82-.99-.12-2.04-.46-3.13-1.01,1.29-.63,2.84-1.8,4.5-3.95h0ZM28.34,59.15c.58-3.01-1.37-5.71-3.9-7.11-2.05-1.28-3.02-3.95-3.32-6.32,3.51-.22,6.21-2.64,8-5.67,1.77,3,4.44,5.41,7.91,5.66-.56,5.7-3.94,10.36-8.69,13.43h0ZM4.54,57.53c0-1.86,1.52-3.29,3.28-3.29s3.29,1.41,3.29,3.29-1.48,3.29-3.29,3.29-3.28-1.48-3.28-3.29ZM13.22,59.42c.52-1.48.42-3.23-.41-4.7h0c1.66-.37,3.06-1.14,4.21-2.03l-.88,5.02-.04.19c-.98.74-1.99,1.22-2.89,1.53h0ZM18.41,58.79s0,0,0-.02l1.48-8.47c.78,1.65,1.91,3.02,3.47,3.94,1.49.89,2.78,2.37,2.62,4.1-.1,1.07-.74,2.13-1.43,2.95-.35.42-.38,1.03-.06,1.48.22.32.64.53,1.04.51.5-.02,1.91-.78,2.34-1.02,0,1.61-.03,14.79-.04,16.55h-12.94l3.5-20.03h0ZM30.29,78.82l.04-18.08c3.58-2.53,6.54-5.98,8.06-10.11,7.29,41.58,4.1,23.39,4.94,28.19h-13.04ZM49.61,36.76c0-1.02.82-1.85,1.84-1.85s1.85.83,1.85,1.85-.83,1.84-1.85,1.84-1.84-.82-1.84-1.84ZM53.5,57.53c0,1.47-.98,2.77-2.41,3.16-.27.08-.56.12-.88.12-1.8,0-3.28-1.47-3.28-3.29s1.47-3.29,3.28-3.29,3.29,1.48,3.29,3.29h0ZM45.26,54.7s0,.02-.01.02c-.82,1.46-.95,3.19-.43,4.67-.84-.3-1.76-.74-2.67-1.4l-.91-5.21c1.11.84,2.46,1.57,4.03,1.93h0ZM41.57,42.25c-2.13,1.09-3.14.99-3.36,1.04-4.46.38-6.88-3.94-7.72-5.84,1.12-1.45,2.3-2.11,3.52-1.96.77.09,1.52.59,2,1.34.32.49.66.97,1.05,1.46,1.67,2.16,3.22,3.34,4.51,3.97h0ZM38.46,36.09c-.14-.2-.28-.4-.41-.6-.89-1.35-2.25-2.23-3.74-2.41-2.03-.25-3.82.71-5.2,2.23-1.37-1.51-3.14-2.49-5.2-2.23-1.49.18-2.85,1.06-3.73,2.41-.14.21-.26.39-.38.56-.02.02-.03.04-.04.06-2.39-1.05-4.07-3.3-4.35-5.94-.07-.61-.12-1.13.24-1.49.48-.47,1.02-.23,1.7-.3.55,0,1.03-.37,1.17-.89l1.14-4.14c5.43-.84,12.52-.83,18.92.02l1.13,4.12c.34,1.22,1.75.82,2.14.89.55,0,1,.45,1,1,0,2.03-.83,3.87-2.15,5.19-.65.65-1.41,1.17-2.24,1.53h0ZM24.99,27.66v1.6c0,.67-.54,1.21-1.21,1.21s-1.21-.54-1.21-1.21v-1.6c0-.67.54-1.21,1.21-1.21s1.21.54,1.21,1.21ZM35.67,27.66v1.6c0,.67-.54,1.21-1.21,1.21s-1.21-.54-1.21-1.21v-1.6c0-.67.54-1.21,1.21-1.21s1.21.54,1.21,1.21Z"/>
  </g>
</svg>