<?xml version="1.0" encoding="UTF-8"?>
<svg id="Layer_2" data-name="Layer 2" xmlns="http://www.w3.org/2000/svg" viewBox="0 0 58.23 63.29">
  <defs>
    <style>
      .cls-1 {
        fill: none;
      }

      .cls-2 {
        fill: #260000;
      }
    </style>
  </defs>
  <g id="Layer_1-2" data-name="Layer 1">
    <g>
      <path class="cls-1" d="M29.11,40.06c-1.79,3.03-4.49,5.45-8,5.67.31,2.38,1.27,5.04,3.32,6.32,2.53,1.39,4.48,4.09,3.9,7.1,4.75-3.07,8.12-7.73,8.69-13.43-3.47-.25-6.14-2.66-7.91-5.66Z"/>
      <path class="cls-1" d="M27.74,37.44c-1.12-1.45-2.3-2.1-3.52-1.96-.77.09-1.52.59-2,1.34-.42.62-.75,1.08-1.06,1.48h0c-1.66,2.15-3.21,3.32-4.5,3.95,1.09.55,2.14.89,3.13,1.01,3.86.23,6.37-2.28,7.95-5.82Z"/>
      <path class="cls-1" d="M36.48,16.41l-7.36-12.76-7.36,12.76c7.91-.54,14.66,0,14.73,0Z"/>
      <path class="cls-1" d="M16.42,25.92l1.1-4c.12-.46.5-.8.96-.88,5.96-1.04,14.1-1.04,21.23,0,.48.07.87.42,1,.88l1.1,4h.05c1.62,0,3.08,1.2,3.37,2.82,0,.03.02.06.02.09,7.65-1.39,10.55-3.44,10.55-4.46,0-1.52-5.47-4.28-17.22-5.36-5.87-.55-12.82-.57-18.93,0-11.75,1.07-17.22,3.83-17.22,5.36h0c0,1.02,2.89,3.07,10.55,4.46.1-.66.45-1.4.96-1.91.66-.65,1.52-1,2.43-1h.05Z"/>
      <path class="cls-1" d="M37.06,38.29c-.38-.5-.72-.98-1.05-1.46-.49-.75-1.24-1.25-2-1.34-1.22-.14-2.4.51-3.52,1.96.84,1.9,3.26,6.23,7.72,5.84.22-.05,1.22.05,3.35-1.03-1.29-.63-2.84-1.81-4.51-3.97Z"/>
      <path class="cls-1" d="M41.86,28.36c-.4-.07-1.81.33-2.14-.89l-1.13-4.12c-6.39-.85-13.49-.86-18.92-.02l-1.14,4.14c-.14.53-.62.89-1.17.89-.68.07-1.22-.18-1.7.3-.36.36-.31.88-.24,1.49.28,2.64,1.96,4.89,4.35,5.94.02-.02.03-.04.04-.06.12-.17.25-.35.38-.56.88-1.34,2.24-2.22,3.73-2.41,2.05-.25,3.83.73,5.2,2.23,1.38-1.52,3.17-2.49,5.2-2.23,1.49.18,2.85,1.06,3.74,2.41.13.2.27.4.41.6h0c.83-.36,1.59-.88,2.24-1.53,1.32-1.32,2.15-3.16,2.15-5.19,0-.55-.45-1-1-1ZM24.99,29.27c0,.67-.54,1.21-1.21,1.21s-1.21-.54-1.21-1.21v-1.6c0-.67.54-1.21,1.21-1.21s1.21.54,1.21,1.21v1.6ZM35.67,29.27c0,.67-.54,1.21-1.21,1.21s-1.21-.54-1.21-1.21v-1.6c0-.67.54-1.21,1.21-1.21s1.21.54,1.21,1.21v1.6Z"/>
      <g>
        <path class="cls-2" d="M23.78,26.45c-.67,0-1.21.54-1.21,1.21v1.6c0,.67.54,1.21,1.21,1.21s1.21-.54,1.21-1.21v-1.6c0-.67-.54-1.21-1.21-1.21Z"/>
        <path class="cls-2" d="M34.45,26.45c-.67,0-1.21.54-1.21,1.21v1.6c0,.67.54,1.21,1.21,1.21s1.21-.54,1.21-1.21v-1.6c0-.67-.54-1.21-1.21-1.21Z"/>
        <path class="cls-2" d="M45.08,31.33h0c5.28-.9,13.15-2.93,13.15-6.96,0-5.33-13.65-7.2-18.8-7.72L30.17.61c-.22-.38-.62-.61-1.05-.61s-.84.23-1.05.61l-9.27,16.05c-5.15.52-18.8,2.39-18.8,7.72,0,4.02,7.87,6.05,13.15,6.96.59,2.89,2.46,5.33,5.05,6.68-2.59,2.75-4.39,2.46-4.41,2.46-.56-.15-1.16.11-1.41.64-.26.52-.11,1.16.36,1.51,1.91,1.44,3.77,2.38,5.55,2.82.1,1,.41,2.87,1.61,4.86,1.22,2,2.76,3.14,3.6,3.69.54.4,1.3,1.08,1.89,2.14.24.44.41.85.52,1.22,0,0,0,.05.02.11.05.29.08.58.06.88-.1,1.07-.74,2.13-1.43,2.95-.35.42-.38,1.03-.06,1.48.22.32.64.53,1.04.51.5-.02,1.91-.78,2.34-1.02,0,0,1-.45,2.44-1.5v-.03c.36-.25.71-.53,1.06-.8,2.88-2.4,6.75-6.87,8.56-14.5,1.79-.44,3.65-1.38,5.55-2.82.46-.35.62-.98.36-1.51s-.85-.79-1.41-.64c-.02,0-1.81.31-4.42-2.48.88-.46,1.7-1.04,2.4-1.74,1.35-1.35,2.27-3.08,2.66-4.93ZM29.12,3.65l7.36,12.76c-.07,0-6.82-.54-14.73,0l7.36-12.76ZM12.98,28.84c-7.65-1.39-10.55-3.44-10.55-4.46h0c0-1.52,5.47-4.28,17.22-5.36,6.11-.57,13.06-.55,18.93,0,11.75,1.08,17.22,3.83,17.22,5.36,0,1.03-2.89,3.08-10.55,4.46,0-.03-.02-.06-.02-.09-.29-1.62-1.75-2.82-3.37-2.82h-.05l-1.1-4c-.13-.46-.52-.81-1-.88-7.12-1.04-15.26-1.03-21.23,0-.46.08-.84.42-.96.88l-1.1,4h-.05c-.91,0-1.77.36-2.43,1-.52.52-.87,1.26-.96,1.91ZM19.79,43.26c-.99-.12-2.04-.46-3.13-1.01,1.29-.63,2.84-1.8,4.5-3.95h0c.32-.4.64-.86,1.06-1.48.49-.74,1.24-1.24,2-1.34,1.21-.14,2.4.51,3.52,1.96-1.57,3.55-4.09,6.06-7.95,5.82ZM28.34,59.15c.58-3.01-1.37-5.71-3.9-7.1-2.05-1.28-3.02-3.95-3.32-6.32,3.51-.22,6.21-2.64,8-5.67,1.77,3,4.44,5.41,7.91,5.66-.56,5.7-3.94,10.36-8.69,13.43ZM41.57,42.26c-2.13,1.08-3.13.99-3.35,1.03-4.46.38-6.88-3.94-7.72-5.84,1.12-1.45,2.3-2.11,3.52-1.96.77.09,1.52.59,2,1.34.32.49.66.97,1.05,1.46,1.67,2.16,3.22,3.34,4.51,3.97ZM38.46,36.09h0c-.14-.2-.28-.4-.41-.6-.89-1.35-2.25-2.23-3.74-2.41-2.03-.25-3.82.71-5.2,2.23-1.37-1.51-3.14-2.49-5.2-2.23-1.49.18-2.85,1.06-3.73,2.41-.14.21-.26.39-.38.56-.02.02-.03.04-.04.06-2.39-1.05-4.07-3.3-4.35-5.94-.07-.61-.12-1.13.24-1.49.48-.47,1.02-.23,1.7-.3.55,0,1.03-.37,1.17-.89l1.14-4.14c5.43-.84,12.52-.83,18.92.02l1.13,4.12c.34,1.22,1.75.82,2.14.89.55,0,1,.45,1,1,0,2.03-.83,3.87-2.15,5.19-.65.65-1.41,1.17-2.24,1.53Z"/>
      </g>
    </g>
  </g>
</svg>