<svg width="50" height="50" viewBox="0 0 50 50" fill="none" xmlns="http://www.w3.org/2000/svg">
<rect width="50" height="50" fill="#D60000"/>
<rect x="13.3541" y="26.5386" width="21.2181" height="9.37193" rx="4.68596" transform="rotate(-12.8571 13.3541 26.5386)" fill="#260000"/>
<rect x="28.221" y="34.2689" width="21.2181" height="7.07271" rx="3.53635" transform="rotate(-102.857 28.221 34.2689)" fill="#4D0000"/>
<rect x="34.8191" y="22.533" width="21.2181" height="7.07271" rx="3.53635" transform="rotate(167.143 34.8191 22.533)" fill="#260000"/>
<rect x="15.1137" y="12.9318" width="28.2908" height="7.07271" rx="3.53635" transform="rotate(77.1429 15.1137 12.9318)" fill="#260000"/>
<rect x="42.0872" y="35.787" width="28.2908" height="7.07271" rx="3.53635" transform="rotate(167.143 42.0872 35.787)" fill="#260000"/>
<rect x="35.787" y="8.21332" width="28.2908" height="7.07271" rx="3.53635" transform="rotate(77.1429 35.787 8.21332)" fill="#260000"/>
<rect x="8.19156" y="14.5482" width="28.2908" height="7.07271" rx="3.53635" transform="rotate(-12.8571 8.19156 14.5482)" fill="#260000"/>
</svg>
