<svg width="420" height="125" viewBox="0 0 420 125" fill="none" xmlns="http://www.w3.org/2000/svg">
<g clip-path="url(#clip0_13_2)">
<rect x="36.1451" y="82.315" width="53.5758" height="23.6641" rx="11.8321" transform="rotate(-45 36.1451 82.315)" fill="#260000"/>
<rect x="78.315" y="78.8702" width="53.5758" height="17.8586" rx="8.92931" transform="rotate(-135 78.315 78.8702)" fill="#4D0000"/>
<rect x="76.6561" y="44.9153" width="53.5758" height="17.8586" rx="8.92931" transform="rotate(135 76.6561 44.9153)" fill="#7A0000"/>
<rect x="21.6279" y="50.8602" width="71.4345" height="17.8586" rx="8.92931" transform="rotate(45 21.6279 50.8602)" fill="#960000"/>
<rect x="110" y="63.4882" width="71.4345" height="17.8586" rx="8.92931" transform="rotate(135 110 63.4882)" fill="#BF0000"/>
<rect x="59.4882" y="13" width="71.4345" height="17.8586" rx="8.92931" transform="rotate(45 59.4882 13)" fill="#D60000"/>
<rect x="9" y="63.6151" width="71.4345" height="17.8586" rx="8.92931" transform="rotate(-45 9 63.6151)" fill="#F00000"/>
<path d="M128.75 42.3125H142.062C148.25 42.3125 152.833 43.4375 155.812 45.6875C158.812 47.9375 160.312 51.375 160.312 56C160.312 58.6875 159.573 61.0833 158.094 63.1875C156.615 65.2708 154.521 66.9062 151.812 68.0938C159.146 79.0521 163.625 85.6875 165.25 88H154.5L143.594 70.4688H138.438V88H128.75V42.3125ZM138.438 50.25V62.5938H141.562C144.625 62.5938 146.885 62.0833 148.344 61.0625C149.802 60.0417 150.531 58.4479 150.531 56.2812C150.531 54.1146 149.792 52.5729 148.312 51.6562C146.854 50.7188 144.542 50.25 141.375 50.25H138.438ZM195.144 86.1562C191.935 87.8021 187.842 88.625 182.862 88.625C177.237 88.625 172.842 87.0729 169.675 83.9688C166.508 80.8646 164.925 76.4271 164.925 70.6562C164.925 64.8854 166.383 60.4167 169.3 57.25C172.217 54.0208 176.206 52.4062 181.269 52.4062C186.331 52.4062 190.227 53.8125 192.956 56.625C195.727 59.4167 197.112 63.3021 197.112 68.2812V72.9062H174.581C174.685 75.6354 175.487 77.7604 176.987 79.2812C178.508 80.7812 180.612 81.5312 183.3 81.5312C187.258 81.5312 191.206 80.6146 195.144 78.7812V86.1562ZM188.175 66.5625C188.133 64.2292 187.519 62.4167 186.331 61.125C185.165 59.8333 183.571 59.1875 181.55 59.1875C179.529 59.1875 177.935 59.8229 176.769 61.0938C175.623 62.3646 174.967 64.1875 174.8 66.5625H188.175ZM232.194 88H224.881L223.037 83.4688H222.631C220.485 86.9062 217.183 88.625 212.725 88.625C208.6 88.625 205.371 87.0417 203.037 83.875C200.704 80.6875 199.537 76.25 199.537 70.5625C199.537 64.8542 200.725 60.4062 203.1 57.2188C205.496 54.0104 208.84 52.4062 213.131 52.4062C217.423 52.4062 220.725 54.125 223.037 57.5625H223.35C222.871 54.875 222.631 52.5417 222.631 50.5625V39.375H232.194V88ZM223.287 70.6562C223.287 66.9271 222.704 64.25 221.537 62.625C220.371 60.9792 218.496 60.1562 215.912 60.1562C213.767 60.1562 212.11 61.0625 210.944 62.875C209.777 64.6875 209.194 67.3021 209.194 70.7188C209.194 74.1146 209.777 76.6875 210.944 78.4375C212.131 80.1667 213.892 81.0312 216.225 81.0312C218.558 81.0312 220.298 80.3333 221.444 78.9375C222.59 77.5208 223.204 75.1042 223.287 71.6875V70.6562ZM248.744 81.6562C252.202 81.6562 253.931 80.6562 253.931 78.6562C253.931 77.6354 253.473 76.8229 252.556 76.2188C251.66 75.6146 249.598 74.5938 246.369 73.1562C243.681 72.0312 241.702 70.9896 240.431 70.0312C239.181 69.0729 238.265 67.9792 237.681 66.75C237.119 65.5 236.838 63.9688 236.838 62.1562C236.838 59.0521 238.035 56.6562 240.431 54.9688C242.848 53.2604 246.223 52.4062 250.556 52.4062C254.89 52.4062 259.025 53.3229 262.963 55.1562L260.088 62.0312C258.067 61.1771 256.327 60.5417 254.869 60.125C253.431 59.6875 251.983 59.4688 250.525 59.4688C247.713 59.4688 246.306 60.2292 246.306 61.75C246.306 62.6042 246.765 63.3542 247.681 64C248.598 64.625 250.494 65.5104 253.369 66.6562C256.265 67.8021 258.348 68.8646 259.619 69.8438C262.098 71.7188 263.338 74.3854 263.338 77.8438C263.338 81.3021 262.088 83.9688 259.588 85.8438C257.088 87.6979 253.473 88.625 248.744 88.625C244.015 88.625 240.056 87.9479 236.869 86.5938V78.7188C238.66 79.5521 240.66 80.25 242.869 80.8125C245.098 81.375 247.056 81.6562 248.744 81.6562ZM278.137 53.0625H287.919V60.2188H278.137V77.0625C278.137 78.375 278.502 79.3646 279.231 80.0312C279.981 80.6979 281.085 81.0312 282.544 81.0312C284.002 81.0312 285.919 80.6667 288.294 79.9375V87.0312C285.919 88.0938 282.919 88.625 279.294 88.625C275.69 88.625 273.002 87.6771 271.231 85.7812C269.481 83.8646 268.606 80.9583 268.606 77.0625V60.2188H264.044V56.1875L269.294 53L272.044 45.625H278.137V53.0625ZM311.688 52.4062C313 52.4062 314.073 52.5 314.906 52.6875L314.188 61.625C313.438 61.4167 312.5 61.3125 311.375 61.3125C308.333 61.3125 305.958 62.0938 304.25 63.6562C302.562 65.2188 301.719 67.4062 301.719 70.2188V88H292.188V53.0625H299.406L300.812 58.9375H301.281C302.406 56.9375 303.865 55.3646 305.656 54.2188C307.49 53.0104 309.5 52.4062 311.688 52.4062ZM317.644 44.0625C317.644 40.9375 319.373 39.375 322.831 39.375C326.29 39.375 328.019 40.9271 328.019 44.0312C328.019 45.5312 327.581 46.6875 326.706 47.5C325.831 48.3125 324.54 48.7188 322.831 48.7188C319.373 48.7188 317.644 47.1667 317.644 44.0625ZM327.581 88H318.05V53.0625H327.581V88ZM354.256 52.4062C358.298 52.4062 361.371 53.5104 363.475 55.7188C365.6 57.9062 366.663 61.0729 366.663 65.2188V88H357.131V67.5938C357.131 65.0521 356.673 63.1562 355.756 61.9062C354.86 60.6562 353.444 60.0312 351.506 60.0312C348.84 60.0312 346.913 60.9271 345.725 62.7188C344.538 64.5104 343.944 67.4583 343.944 71.5625V88H334.413V53.0625H341.694L342.975 57.5625H343.506C344.548 55.875 345.996 54.5938 347.85 53.7188C349.725 52.8438 351.86 52.4062 354.256 52.4062ZM385.556 80.7812H391.494C395.327 80.7812 398.244 81.6146 400.244 83.2812C402.265 84.9271 403.275 87.3333 403.275 90.5C403.275 94.5833 401.567 97.75 398.15 100C394.754 102.25 389.869 103.375 383.494 103.375C378.64 103.375 374.921 102.531 372.337 100.844C369.754 99.1562 368.462 96.7708 368.462 93.6875C368.462 91.5833 369.119 89.8229 370.431 88.4062C371.744 86.9896 373.671 85.9792 376.212 85.375C375.254 85 374.4 84.3229 373.65 83.3438C372.921 82.3646 372.556 81.3021 372.556 80.1562C372.556 78.9896 372.91 77.9688 373.619 77.0938C374.348 76.1979 375.494 75.2917 377.056 74.375C375.202 73.5625 373.744 72.2812 372.681 70.5312C371.619 68.7812 371.087 66.7292 371.087 64.375C371.087 60.5625 372.327 57.6146 374.806 55.5312C377.285 53.4479 380.827 52.4062 385.431 52.4062C386.41 52.4062 387.567 52.5 388.9 52.6875C390.254 52.8542 391.119 52.9792 391.494 53.0625H403.681V57.9062L398.212 59.3125C399.212 60.9167 399.712 62.6667 399.712 64.5625C399.712 68.3125 398.41 71.2396 395.806 73.3438C393.202 75.4271 389.567 76.4688 384.9 76.4688L383.181 76.375L381.775 76.2188C380.796 76.9688 380.306 77.8021 380.306 78.7188C380.306 80.0938 382.056 80.7812 385.556 80.7812ZM385.431 58.1875C381.931 58.1875 380.181 60.2917 380.181 64.5C380.181 66.4375 380.619 67.9479 381.494 69.0312C382.39 70.1146 383.702 70.6562 385.431 70.6562C387.181 70.6562 388.483 70.125 389.337 69.0625C390.192 67.9792 390.619 66.4583 390.619 64.5C390.619 60.2917 388.89 58.1875 385.431 58.1875ZM387.806 88.4375H382.869C381.119 88.4375 379.65 88.8438 378.462 89.6562C377.296 90.5104 376.712 91.5938 376.712 92.9062C376.712 94.2396 377.348 95.2812 378.619 96.0312C379.89 96.7812 381.65 97.1562 383.9 97.1562C387.317 97.1562 389.994 96.6875 391.931 95.75C393.869 94.8125 394.837 93.5312 394.837 91.9062C394.837 90.6354 394.275 89.7396 393.15 89.2188C392.046 88.6979 390.265 88.4375 387.806 88.4375Z" fill="#FCFBFB"/>
</g>
<defs>
<clipPath id="clip0_13_2">
<rect width="420" height="125" fill="white"/>
</clipPath>
</defs>
</svg>
